%TF.GenerationSoftware,KiCad,Pcbnew,(5.1.6)-1*%
%TF.CreationDate,2020-08-17T19:43:53-04:00*%
%TF.ProjectId,keeb_v1,6b656562-5f76-4312-9e6b-696361645f70,rev?*%
%TF.SameCoordinates,Original*%
%TF.FileFunction,Soldermask,Bot*%
%TF.FilePolarity,Negative*%
%FSLAX46Y46*%
G04 Gerber Fmt 4.6, Leading zero omitted, Abs format (unit mm)*
G04 Created by KiCad (PCBNEW (5.1.6)-1) date 2020-08-17 19:43:53*
%MOMM*%
%LPD*%
G01*
G04 APERTURE LIST*
%ADD10C,1.801800*%
%ADD11C,4.087800*%
%ADD12R,1.600000X0.650000*%
%ADD13R,0.650000X1.600000*%
%ADD14C,1.700000*%
%ADD15R,1.700000X1.700000*%
%ADD16R,1.300000X1.300000*%
%ADD17R,2.450000X0.900000*%
%ADD18R,0.600000X1.500000*%
%ADD19O,1.600000X4.100000*%
%ADD20R,1.800000X1.100000*%
%ADD21C,0.100000*%
G04 APERTURE END LIST*
%TO.C,K3*%
G36*
G01*
X106613286Y-99550909D02*
X106652734Y-98972252D01*
G75*
G02*
X108038144Y-97763682I1296990J-88420D01*
G01*
X108038144Y-97763682D01*
G75*
G02*
X109246714Y-99149092I-88420J-1296990D01*
G01*
X109207266Y-99727748D01*
G75*
G02*
X107821856Y-100936318I-1296990J88420D01*
G01*
X107821856Y-100936318D01*
G75*
G02*
X106613286Y-99550908I88420J1296990D01*
G01*
G37*
G36*
G01*
X100454129Y-100870326D02*
X101663053Y-98972696D01*
G75*
G02*
X103457951Y-98574776I1096409J-698489D01*
G01*
X103457951Y-98574776D01*
G75*
G02*
X103855871Y-100369674I-698489J-1096409D01*
G01*
X102646947Y-102267304D01*
G75*
G02*
X100852049Y-102665224I-1096409J698489D01*
G01*
X100852049Y-102665224D01*
G75*
G02*
X100454129Y-100870326I698489J1096409D01*
G01*
G37*
D10*
X110490000Y-104140000D03*
X100330000Y-104140000D03*
D11*
X105410000Y-104140000D03*
%TD*%
D12*
%TO.C,U1*%
X121300000Y-118300000D03*
X121300000Y-117500000D03*
X121300000Y-116700000D03*
X121300000Y-115900000D03*
X121300000Y-115100000D03*
X121300000Y-114300000D03*
X121300000Y-113500000D03*
X121300000Y-112700000D03*
X121300000Y-111900000D03*
X121300000Y-111100000D03*
X121300000Y-110300000D03*
D13*
X123000000Y-108600000D03*
X123800000Y-108600000D03*
X124600000Y-108600000D03*
X125400000Y-108600000D03*
X126200000Y-108600000D03*
X127000000Y-108600000D03*
X127800000Y-108600000D03*
X128600000Y-108600000D03*
X129400000Y-108600000D03*
X130200000Y-108600000D03*
X131000000Y-108600000D03*
D12*
X132700000Y-110300000D03*
X132700000Y-111100000D03*
X132700000Y-111900000D03*
X132700000Y-112700000D03*
X132700000Y-113500000D03*
X132700000Y-114300000D03*
X132700000Y-115100000D03*
X132700000Y-115900000D03*
X132700000Y-116700000D03*
X132700000Y-117500000D03*
X132700000Y-118300000D03*
D13*
X131000000Y-120000000D03*
X130200000Y-120000000D03*
X129400000Y-120000000D03*
X128600000Y-120000000D03*
X127800000Y-120000000D03*
X127000000Y-120000000D03*
X126200000Y-120000000D03*
X125400000Y-120000000D03*
X124600000Y-120000000D03*
X123800000Y-120000000D03*
X123000000Y-120000000D03*
%TD*%
%TO.C,C1*%
G36*
G01*
X122398262Y-101980000D02*
X121441738Y-101980000D01*
G75*
G02*
X121170000Y-101708262I0J271738D01*
G01*
X121170000Y-101001738D01*
G75*
G02*
X121441738Y-100730000I271738J0D01*
G01*
X122398262Y-100730000D01*
G75*
G02*
X122670000Y-101001738I0J-271738D01*
G01*
X122670000Y-101708262D01*
G75*
G02*
X122398262Y-101980000I-271738J0D01*
G01*
G37*
G36*
G01*
X122398262Y-99930000D02*
X121441738Y-99930000D01*
G75*
G02*
X121170000Y-99658262I0J271738D01*
G01*
X121170000Y-98951738D01*
G75*
G02*
X121441738Y-98680000I271738J0D01*
G01*
X122398262Y-98680000D01*
G75*
G02*
X122670000Y-98951738I0J-271738D01*
G01*
X122670000Y-99658262D01*
G75*
G02*
X122398262Y-99930000I-271738J0D01*
G01*
G37*
%TD*%
%TO.C,C2*%
G36*
G01*
X133828262Y-99930000D02*
X132871738Y-99930000D01*
G75*
G02*
X132600000Y-99658262I0J271738D01*
G01*
X132600000Y-98951738D01*
G75*
G02*
X132871738Y-98680000I271738J0D01*
G01*
X133828262Y-98680000D01*
G75*
G02*
X134100000Y-98951738I0J-271738D01*
G01*
X134100000Y-99658262D01*
G75*
G02*
X133828262Y-99930000I-271738J0D01*
G01*
G37*
G36*
G01*
X133828262Y-101980000D02*
X132871738Y-101980000D01*
G75*
G02*
X132600000Y-101708262I0J271738D01*
G01*
X132600000Y-101001738D01*
G75*
G02*
X132871738Y-100730000I271738J0D01*
G01*
X133828262Y-100730000D01*
G75*
G02*
X134100000Y-101001738I0J-271738D01*
G01*
X134100000Y-101708262D01*
G75*
G02*
X133828262Y-101980000I-271738J0D01*
G01*
G37*
%TD*%
%TO.C,C3*%
G36*
G01*
X136681738Y-117240000D02*
X137638262Y-117240000D01*
G75*
G02*
X137910000Y-117511738I0J-271738D01*
G01*
X137910000Y-118218262D01*
G75*
G02*
X137638262Y-118490000I-271738J0D01*
G01*
X136681738Y-118490000D01*
G75*
G02*
X136410000Y-118218262I0J271738D01*
G01*
X136410000Y-117511738D01*
G75*
G02*
X136681738Y-117240000I271738J0D01*
G01*
G37*
G36*
G01*
X136681738Y-115190000D02*
X137638262Y-115190000D01*
G75*
G02*
X137910000Y-115461738I0J-271738D01*
G01*
X137910000Y-116168262D01*
G75*
G02*
X137638262Y-116440000I-271738J0D01*
G01*
X136681738Y-116440000D01*
G75*
G02*
X136410000Y-116168262I0J271738D01*
G01*
X136410000Y-115461738D01*
G75*
G02*
X136681738Y-115190000I271738J0D01*
G01*
G37*
%TD*%
%TO.C,C4*%
G36*
G01*
X136681738Y-107570000D02*
X137638262Y-107570000D01*
G75*
G02*
X137910000Y-107841738I0J-271738D01*
G01*
X137910000Y-108548262D01*
G75*
G02*
X137638262Y-108820000I-271738J0D01*
G01*
X136681738Y-108820000D01*
G75*
G02*
X136410000Y-108548262I0J271738D01*
G01*
X136410000Y-107841738D01*
G75*
G02*
X136681738Y-107570000I271738J0D01*
G01*
G37*
G36*
G01*
X136681738Y-109620000D02*
X137638262Y-109620000D01*
G75*
G02*
X137910000Y-109891738I0J-271738D01*
G01*
X137910000Y-110598262D01*
G75*
G02*
X137638262Y-110870000I-271738J0D01*
G01*
X136681738Y-110870000D01*
G75*
G02*
X136410000Y-110598262I0J271738D01*
G01*
X136410000Y-109891738D01*
G75*
G02*
X136681738Y-109620000I271738J0D01*
G01*
G37*
%TD*%
%TO.C,C5*%
G36*
G01*
X118588262Y-111360000D02*
X117631738Y-111360000D01*
G75*
G02*
X117360000Y-111088262I0J271738D01*
G01*
X117360000Y-110381738D01*
G75*
G02*
X117631738Y-110110000I271738J0D01*
G01*
X118588262Y-110110000D01*
G75*
G02*
X118860000Y-110381738I0J-271738D01*
G01*
X118860000Y-111088262D01*
G75*
G02*
X118588262Y-111360000I-271738J0D01*
G01*
G37*
G36*
G01*
X118588262Y-113410000D02*
X117631738Y-113410000D01*
G75*
G02*
X117360000Y-113138262I0J271738D01*
G01*
X117360000Y-112431738D01*
G75*
G02*
X117631738Y-112160000I271738J0D01*
G01*
X118588262Y-112160000D01*
G75*
G02*
X118860000Y-112431738I0J-271738D01*
G01*
X118860000Y-113138262D01*
G75*
G02*
X118588262Y-113410000I-271738J0D01*
G01*
G37*
%TD*%
%TO.C,C6*%
G36*
G01*
X118588262Y-101980000D02*
X117631738Y-101980000D01*
G75*
G02*
X117360000Y-101708262I0J271738D01*
G01*
X117360000Y-101001738D01*
G75*
G02*
X117631738Y-100730000I271738J0D01*
G01*
X118588262Y-100730000D01*
G75*
G02*
X118860000Y-101001738I0J-271738D01*
G01*
X118860000Y-101708262D01*
G75*
G02*
X118588262Y-101980000I-271738J0D01*
G01*
G37*
G36*
G01*
X118588262Y-99930000D02*
X117631738Y-99930000D01*
G75*
G02*
X117360000Y-99658262I0J271738D01*
G01*
X117360000Y-98951738D01*
G75*
G02*
X117631738Y-98680000I271738J0D01*
G01*
X118588262Y-98680000D01*
G75*
G02*
X118860000Y-98951738I0J-271738D01*
G01*
X118860000Y-99658262D01*
G75*
G02*
X118588262Y-99930000I-271738J0D01*
G01*
G37*
%TD*%
%TO.C,C7*%
G36*
G01*
X118588262Y-115170000D02*
X117631738Y-115170000D01*
G75*
G02*
X117360000Y-114898262I0J271738D01*
G01*
X117360000Y-114191738D01*
G75*
G02*
X117631738Y-113920000I271738J0D01*
G01*
X118588262Y-113920000D01*
G75*
G02*
X118860000Y-114191738I0J-271738D01*
G01*
X118860000Y-114898262D01*
G75*
G02*
X118588262Y-115170000I-271738J0D01*
G01*
G37*
G36*
G01*
X118588262Y-117220000D02*
X117631738Y-117220000D01*
G75*
G02*
X117360000Y-116948262I0J271738D01*
G01*
X117360000Y-116241738D01*
G75*
G02*
X117631738Y-115970000I271738J0D01*
G01*
X118588262Y-115970000D01*
G75*
G02*
X118860000Y-116241738I0J-271738D01*
G01*
X118860000Y-116948262D01*
G75*
G02*
X118588262Y-117220000I-271738J0D01*
G01*
G37*
%TD*%
%TO.C,C8*%
G36*
G01*
X118588262Y-121030000D02*
X117631738Y-121030000D01*
G75*
G02*
X117360000Y-120758262I0J271738D01*
G01*
X117360000Y-120051738D01*
G75*
G02*
X117631738Y-119780000I271738J0D01*
G01*
X118588262Y-119780000D01*
G75*
G02*
X118860000Y-120051738I0J-271738D01*
G01*
X118860000Y-120758262D01*
G75*
G02*
X118588262Y-121030000I-271738J0D01*
G01*
G37*
G36*
G01*
X118588262Y-118980000D02*
X117631738Y-118980000D01*
G75*
G02*
X117360000Y-118708262I0J271738D01*
G01*
X117360000Y-118001738D01*
G75*
G02*
X117631738Y-117730000I271738J0D01*
G01*
X118588262Y-117730000D01*
G75*
G02*
X118860000Y-118001738I0J-271738D01*
G01*
X118860000Y-118708262D01*
G75*
G02*
X118588262Y-118980000I-271738J0D01*
G01*
G37*
%TD*%
%TO.C,C9*%
G36*
G01*
X118588262Y-109600000D02*
X117631738Y-109600000D01*
G75*
G02*
X117360000Y-109328262I0J271738D01*
G01*
X117360000Y-108621738D01*
G75*
G02*
X117631738Y-108350000I271738J0D01*
G01*
X118588262Y-108350000D01*
G75*
G02*
X118860000Y-108621738I0J-271738D01*
G01*
X118860000Y-109328262D01*
G75*
G02*
X118588262Y-109600000I-271738J0D01*
G01*
G37*
G36*
G01*
X118588262Y-107550000D02*
X117631738Y-107550000D01*
G75*
G02*
X117360000Y-107278262I0J271738D01*
G01*
X117360000Y-106571738D01*
G75*
G02*
X117631738Y-106300000I271738J0D01*
G01*
X118588262Y-106300000D01*
G75*
G02*
X118860000Y-106571738I0J-271738D01*
G01*
X118860000Y-107278262D01*
G75*
G02*
X118588262Y-107550000I-271738J0D01*
G01*
G37*
%TD*%
D14*
%TO.C,D1*%
X90260000Y-109220000D03*
D15*
X82460000Y-109220000D03*
D16*
X84785000Y-109220000D03*
X87935000Y-109220000D03*
%TD*%
%TO.C,D2*%
X87935000Y-128270000D03*
X84785000Y-128270000D03*
D15*
X82460000Y-128270000D03*
D14*
X90260000Y-128270000D03*
%TD*%
D16*
%TO.C,D3*%
X106985000Y-109220000D03*
X103835000Y-109220000D03*
D15*
X101510000Y-109220000D03*
D14*
X109310000Y-109220000D03*
%TD*%
%TO.C,D4*%
X109310000Y-128270000D03*
D15*
X101510000Y-128270000D03*
D16*
X103835000Y-128270000D03*
X106985000Y-128270000D03*
%TD*%
D17*
%TO.C,J1*%
X97925000Y-95130000D03*
X92575000Y-95130000D03*
D18*
X93650000Y-100330000D03*
X94450000Y-100330000D03*
X95250000Y-100330000D03*
X96050000Y-100330000D03*
X96850000Y-100330000D03*
D19*
X91600000Y-97930000D03*
X98900000Y-97930000D03*
%TD*%
D11*
%TO.C,K1*%
X86360000Y-104140000D03*
D10*
X81280000Y-104140000D03*
X91440000Y-104140000D03*
G36*
G01*
X81404129Y-100870326D02*
X82613053Y-98972696D01*
G75*
G02*
X84407951Y-98574776I1096409J-698489D01*
G01*
X84407951Y-98574776D01*
G75*
G02*
X84805871Y-100369674I-698489J-1096409D01*
G01*
X83596947Y-102267304D01*
G75*
G02*
X81802049Y-102665224I-1096409J698489D01*
G01*
X81802049Y-102665224D01*
G75*
G02*
X81404129Y-100870326I698489J1096409D01*
G01*
G37*
G36*
G01*
X87563286Y-99550909D02*
X87602734Y-98972252D01*
G75*
G02*
X88988144Y-97763682I1296990J-88420D01*
G01*
X88988144Y-97763682D01*
G75*
G02*
X90196714Y-99149092I-88420J-1296990D01*
G01*
X90157266Y-99727748D01*
G75*
G02*
X88771856Y-100936318I-1296990J88420D01*
G01*
X88771856Y-100936318D01*
G75*
G02*
X87563286Y-99550908I88420J1296990D01*
G01*
G37*
%TD*%
D11*
%TO.C,K2*%
X86360000Y-123190000D03*
D10*
X81280000Y-123190000D03*
X91440000Y-123190000D03*
G36*
G01*
X81404129Y-119920326D02*
X82613053Y-118022696D01*
G75*
G02*
X84407951Y-117624776I1096409J-698489D01*
G01*
X84407951Y-117624776D01*
G75*
G02*
X84805871Y-119419674I-698489J-1096409D01*
G01*
X83596947Y-121317304D01*
G75*
G02*
X81802049Y-121715224I-1096409J698489D01*
G01*
X81802049Y-121715224D01*
G75*
G02*
X81404129Y-119920326I698489J1096409D01*
G01*
G37*
G36*
G01*
X87563286Y-118600909D02*
X87602734Y-118022252D01*
G75*
G02*
X88988144Y-116813682I1296990J-88420D01*
G01*
X88988144Y-116813682D01*
G75*
G02*
X90196714Y-118199092I-88420J-1296990D01*
G01*
X90157266Y-118777748D01*
G75*
G02*
X88771856Y-119986318I-1296990J88420D01*
G01*
X88771856Y-119986318D01*
G75*
G02*
X87563286Y-118600908I88420J1296990D01*
G01*
G37*
%TD*%
%TO.C,K4*%
G36*
G01*
X106613286Y-118600909D02*
X106652734Y-118022252D01*
G75*
G02*
X108038144Y-116813682I1296990J-88420D01*
G01*
X108038144Y-116813682D01*
G75*
G02*
X109246714Y-118199092I-88420J-1296990D01*
G01*
X109207266Y-118777748D01*
G75*
G02*
X107821856Y-119986318I-1296990J88420D01*
G01*
X107821856Y-119986318D01*
G75*
G02*
X106613286Y-118600908I88420J1296990D01*
G01*
G37*
G36*
G01*
X100454129Y-119920326D02*
X101663053Y-118022696D01*
G75*
G02*
X103457951Y-117624776I1096409J-698489D01*
G01*
X103457951Y-117624776D01*
G75*
G02*
X103855871Y-119419674I-698489J-1096409D01*
G01*
X102646947Y-121317304D01*
G75*
G02*
X100852049Y-121715224I-1096409J698489D01*
G01*
X100852049Y-121715224D01*
G75*
G02*
X100454129Y-119920326I698489J1096409D01*
G01*
G37*
X110490000Y-123190000D03*
X100330000Y-123190000D03*
D11*
X105410000Y-123190000D03*
%TD*%
%TO.C,R1*%
G36*
G01*
X121128262Y-126110000D02*
X120171738Y-126110000D01*
G75*
G02*
X119900000Y-125838262I0J271738D01*
G01*
X119900000Y-125131738D01*
G75*
G02*
X120171738Y-124860000I271738J0D01*
G01*
X121128262Y-124860000D01*
G75*
G02*
X121400000Y-125131738I0J-271738D01*
G01*
X121400000Y-125838262D01*
G75*
G02*
X121128262Y-126110000I-271738J0D01*
G01*
G37*
G36*
G01*
X121128262Y-124060000D02*
X120171738Y-124060000D01*
G75*
G02*
X119900000Y-123788262I0J271738D01*
G01*
X119900000Y-123081738D01*
G75*
G02*
X120171738Y-122810000I271738J0D01*
G01*
X121128262Y-122810000D01*
G75*
G02*
X121400000Y-123081738I0J-271738D01*
G01*
X121400000Y-123788262D01*
G75*
G02*
X121128262Y-124060000I-271738J0D01*
G01*
G37*
%TD*%
%TO.C,R2*%
G36*
G01*
X136681738Y-113430000D02*
X137638262Y-113430000D01*
G75*
G02*
X137910000Y-113701738I0J-271738D01*
G01*
X137910000Y-114408262D01*
G75*
G02*
X137638262Y-114680000I-271738J0D01*
G01*
X136681738Y-114680000D01*
G75*
G02*
X136410000Y-114408262I0J271738D01*
G01*
X136410000Y-113701738D01*
G75*
G02*
X136681738Y-113430000I271738J0D01*
G01*
G37*
G36*
G01*
X136681738Y-111380000D02*
X137638262Y-111380000D01*
G75*
G02*
X137910000Y-111651738I0J-271738D01*
G01*
X137910000Y-112358262D01*
G75*
G02*
X137638262Y-112630000I-271738J0D01*
G01*
X136681738Y-112630000D01*
G75*
G02*
X136410000Y-112358262I0J271738D01*
G01*
X136410000Y-111651738D01*
G75*
G02*
X136681738Y-111380000I271738J0D01*
G01*
G37*
%TD*%
%TO.C,R3*%
G36*
G01*
X128650000Y-94771738D02*
X128650000Y-95728262D01*
G75*
G02*
X128378262Y-96000000I-271738J0D01*
G01*
X127671738Y-96000000D01*
G75*
G02*
X127400000Y-95728262I0J271738D01*
G01*
X127400000Y-94771738D01*
G75*
G02*
X127671738Y-94500000I271738J0D01*
G01*
X128378262Y-94500000D01*
G75*
G02*
X128650000Y-94771738I0J-271738D01*
G01*
G37*
G36*
G01*
X126600000Y-94771738D02*
X126600000Y-95728262D01*
G75*
G02*
X126328262Y-96000000I-271738J0D01*
G01*
X125621738Y-96000000D01*
G75*
G02*
X125350000Y-95728262I0J271738D01*
G01*
X125350000Y-94771738D01*
G75*
G02*
X125621738Y-94500000I271738J0D01*
G01*
X126328262Y-94500000D01*
G75*
G02*
X126600000Y-94771738I0J-271738D01*
G01*
G37*
%TD*%
%TO.C,R4*%
G36*
G01*
X118980000Y-94771738D02*
X118980000Y-95728262D01*
G75*
G02*
X118708262Y-96000000I-271738J0D01*
G01*
X118001738Y-96000000D01*
G75*
G02*
X117730000Y-95728262I0J271738D01*
G01*
X117730000Y-94771738D01*
G75*
G02*
X118001738Y-94500000I271738J0D01*
G01*
X118708262Y-94500000D01*
G75*
G02*
X118980000Y-94771738I0J-271738D01*
G01*
G37*
G36*
G01*
X121030000Y-94771738D02*
X121030000Y-95728262D01*
G75*
G02*
X120758262Y-96000000I-271738J0D01*
G01*
X120051738Y-96000000D01*
G75*
G02*
X119780000Y-95728262I0J271738D01*
G01*
X119780000Y-94771738D01*
G75*
G02*
X120051738Y-94500000I271738J0D01*
G01*
X120758262Y-94500000D01*
G75*
G02*
X121030000Y-94771738I0J-271738D01*
G01*
G37*
%TD*%
D20*
%TO.C,SW1*%
X123850000Y-128900000D03*
X130150000Y-128900000D03*
X123850000Y-125100000D03*
X130150000Y-125100000D03*
%TD*%
D21*
%TO.C,X1*%
G36*
X126681802Y-102769518D02*
G01*
X125762564Y-101850280D01*
X126823224Y-100789620D01*
X127742462Y-101708858D01*
X126681802Y-102769518D01*
G37*
G36*
X128378858Y-101072462D02*
G01*
X127459620Y-100153224D01*
X128520280Y-99092564D01*
X129439518Y-100011802D01*
X128378858Y-101072462D01*
G37*
G36*
X125479720Y-101567436D02*
G01*
X124560482Y-100648198D01*
X125621142Y-99587538D01*
X126540380Y-100506776D01*
X125479720Y-101567436D01*
G37*
G36*
X127176776Y-99870380D02*
G01*
X126257538Y-98951142D01*
X127318198Y-97890482D01*
X128237436Y-98809720D01*
X127176776Y-99870380D01*
G37*
%TD*%
M02*
