%TF.GenerationSoftware,KiCad,Pcbnew,(5.1.6)-1*%
%TF.CreationDate,2020-08-17T19:43:53-04:00*%
%TF.ProjectId,keeb_v1,6b656562-5f76-4312-9e6b-696361645f70,rev?*%
%TF.SameCoordinates,Original*%
%TF.FileFunction,Legend,Bot*%
%TF.FilePolarity,Positive*%
%FSLAX46Y46*%
G04 Gerber Fmt 4.6, Leading zero omitted, Abs format (unit mm)*
G04 Created by KiCad (PCBNEW (5.1.6)-1) date 2020-08-17 19:43:53*
%MOMM*%
%LPD*%
G01*
G04 APERTURE LIST*
%ADD10C,0.300000*%
%ADD11C,0.150000*%
%ADD12C,0.120000*%
%ADD13C,0.200000*%
G04 APERTURE END LIST*
D10*
X79767428Y-137076571D02*
X79767428Y-135576571D01*
X79624571Y-136505142D02*
X79196000Y-137076571D01*
X79196000Y-136076571D02*
X79767428Y-136648000D01*
X77981714Y-137005142D02*
X78124571Y-137076571D01*
X78410285Y-137076571D01*
X78553142Y-137005142D01*
X78624571Y-136862285D01*
X78624571Y-136290857D01*
X78553142Y-136148000D01*
X78410285Y-136076571D01*
X78124571Y-136076571D01*
X77981714Y-136148000D01*
X77910285Y-136290857D01*
X77910285Y-136433714D01*
X78624571Y-136576571D01*
X76696000Y-137005142D02*
X76838857Y-137076571D01*
X77124571Y-137076571D01*
X77267428Y-137005142D01*
X77338857Y-136862285D01*
X77338857Y-136290857D01*
X77267428Y-136148000D01*
X77124571Y-136076571D01*
X76838857Y-136076571D01*
X76696000Y-136148000D01*
X76624571Y-136290857D01*
X76624571Y-136433714D01*
X77338857Y-136576571D01*
X75981714Y-137076571D02*
X75981714Y-135576571D01*
X75981714Y-136148000D02*
X75838857Y-136076571D01*
X75553142Y-136076571D01*
X75410285Y-136148000D01*
X75338857Y-136219428D01*
X75267428Y-136362285D01*
X75267428Y-136790857D01*
X75338857Y-136933714D01*
X75410285Y-137005142D01*
X75553142Y-137076571D01*
X75838857Y-137076571D01*
X75981714Y-137005142D01*
X74696000Y-137005142D02*
X74553142Y-137076571D01*
X74267428Y-137076571D01*
X74124571Y-137005142D01*
X74053142Y-136862285D01*
X74053142Y-136790857D01*
X74124571Y-136648000D01*
X74267428Y-136576571D01*
X74481714Y-136576571D01*
X74624571Y-136505142D01*
X74696000Y-136362285D01*
X74696000Y-136290857D01*
X74624571Y-136148000D01*
X74481714Y-136076571D01*
X74267428Y-136076571D01*
X74124571Y-136148000D01*
X73410285Y-137076571D02*
X73410285Y-136076571D01*
X73410285Y-135576571D02*
X73481714Y-135648000D01*
X73410285Y-135719428D01*
X73338857Y-135648000D01*
X73410285Y-135576571D01*
X73410285Y-135719428D01*
X72124571Y-137005142D02*
X72267428Y-137076571D01*
X72553142Y-137076571D01*
X72696000Y-137005142D01*
X72767428Y-136862285D01*
X72767428Y-136290857D01*
X72696000Y-136148000D01*
X72553142Y-136076571D01*
X72267428Y-136076571D01*
X72124571Y-136148000D01*
X72053142Y-136290857D01*
X72053142Y-136433714D01*
X72767428Y-136576571D01*
D11*
%TO.C,U1*%
X121825000Y-119475000D02*
X121825000Y-118900000D01*
X132175000Y-119475000D02*
X132175000Y-118800000D01*
X132175000Y-109125000D02*
X132175000Y-109800000D01*
X121825000Y-109125000D02*
X121825000Y-109800000D01*
X121825000Y-119475000D02*
X122500000Y-119475000D01*
X121825000Y-109125000D02*
X122500000Y-109125000D01*
X132175000Y-109125000D02*
X131500000Y-109125000D01*
X132175000Y-119475000D02*
X131500000Y-119475000D01*
X121825000Y-118900000D02*
X120550000Y-118900000D01*
D12*
%TO.C,C1*%
X122630000Y-100591252D02*
X122630000Y-100068748D01*
X121210000Y-100591252D02*
X121210000Y-100068748D01*
%TO.C,C2*%
X132640000Y-100591252D02*
X132640000Y-100068748D01*
X134060000Y-100591252D02*
X134060000Y-100068748D01*
%TO.C,C3*%
X137870000Y-116578748D02*
X137870000Y-117101252D01*
X136450000Y-116578748D02*
X136450000Y-117101252D01*
%TO.C,C4*%
X136450000Y-108958748D02*
X136450000Y-109481252D01*
X137870000Y-108958748D02*
X137870000Y-109481252D01*
%TO.C,C5*%
X117400000Y-112021252D02*
X117400000Y-111498748D01*
X118820000Y-112021252D02*
X118820000Y-111498748D01*
%TO.C,C6*%
X118820000Y-100591252D02*
X118820000Y-100068748D01*
X117400000Y-100591252D02*
X117400000Y-100068748D01*
%TO.C,C7*%
X117400000Y-115831252D02*
X117400000Y-115308748D01*
X118820000Y-115831252D02*
X118820000Y-115308748D01*
%TO.C,C8*%
X118820000Y-119641252D02*
X118820000Y-119118748D01*
X117400000Y-119641252D02*
X117400000Y-119118748D01*
%TO.C,C9*%
X118820000Y-108211252D02*
X118820000Y-107688748D01*
X117400000Y-108211252D02*
X117400000Y-107688748D01*
D13*
%TO.C,D1*%
X89160000Y-108020000D02*
X83360000Y-108020000D01*
X89160000Y-110420000D02*
X89160000Y-108020000D01*
X83360000Y-110420000D02*
X89160000Y-110420000D01*
X83435000Y-110420000D02*
X83435000Y-108020000D01*
X83560000Y-110420000D02*
X83560000Y-108020000D01*
X83335000Y-108020000D02*
X83335000Y-110420000D01*
X83735000Y-110420000D02*
X83735000Y-108020000D01*
X83910000Y-110420000D02*
X83910000Y-108020000D01*
X84085000Y-110420000D02*
X84085000Y-108020000D01*
%TO.C,D2*%
X84085000Y-129470000D02*
X84085000Y-127070000D01*
X83910000Y-129470000D02*
X83910000Y-127070000D01*
X83735000Y-129470000D02*
X83735000Y-127070000D01*
X83335000Y-127070000D02*
X83335000Y-129470000D01*
X83560000Y-129470000D02*
X83560000Y-127070000D01*
X83435000Y-129470000D02*
X83435000Y-127070000D01*
X83360000Y-129470000D02*
X89160000Y-129470000D01*
X89160000Y-129470000D02*
X89160000Y-127070000D01*
X89160000Y-127070000D02*
X83360000Y-127070000D01*
%TO.C,D3*%
X103135000Y-110420000D02*
X103135000Y-108020000D01*
X102960000Y-110420000D02*
X102960000Y-108020000D01*
X102785000Y-110420000D02*
X102785000Y-108020000D01*
X102385000Y-108020000D02*
X102385000Y-110420000D01*
X102610000Y-110420000D02*
X102610000Y-108020000D01*
X102485000Y-110420000D02*
X102485000Y-108020000D01*
X102410000Y-110420000D02*
X108210000Y-110420000D01*
X108210000Y-110420000D02*
X108210000Y-108020000D01*
X108210000Y-108020000D02*
X102410000Y-108020000D01*
%TO.C,D4*%
X108210000Y-127070000D02*
X102410000Y-127070000D01*
X108210000Y-129470000D02*
X108210000Y-127070000D01*
X102410000Y-129470000D02*
X108210000Y-129470000D01*
X102485000Y-129470000D02*
X102485000Y-127070000D01*
X102610000Y-129470000D02*
X102610000Y-127070000D01*
X102385000Y-127070000D02*
X102385000Y-129470000D01*
X102785000Y-129470000D02*
X102785000Y-127070000D01*
X102960000Y-129470000D02*
X102960000Y-127070000D01*
X103135000Y-129470000D02*
X103135000Y-127070000D01*
%TO.C,J1*%
X99100000Y-100730000D02*
X99100000Y-94230000D01*
X91400000Y-100730000D02*
X91400000Y-94230000D01*
X91400000Y-100730000D02*
X99100000Y-100730000D01*
D12*
%TO.C,R1*%
X121360000Y-124721252D02*
X121360000Y-124198748D01*
X119940000Y-124721252D02*
X119940000Y-124198748D01*
%TO.C,R2*%
X137870000Y-112768748D02*
X137870000Y-113291252D01*
X136450000Y-112768748D02*
X136450000Y-113291252D01*
%TO.C,R3*%
X127261252Y-94540000D02*
X126738748Y-94540000D01*
X127261252Y-95960000D02*
X126738748Y-95960000D01*
%TO.C,R4*%
X119641252Y-95960000D02*
X119118748Y-95960000D01*
X119641252Y-94540000D02*
X119118748Y-94540000D01*
%TO.C,SW1*%
X125300000Y-124700000D02*
X125750000Y-124250000D01*
X128700000Y-124700000D02*
X128250000Y-124250000D01*
X128700000Y-129300000D02*
X128250000Y-129750000D01*
X125300000Y-129300000D02*
X125750000Y-129750000D01*
X129750000Y-128000000D02*
X129750000Y-126000000D01*
X125750000Y-124250000D02*
X128250000Y-124250000D01*
X124250000Y-128000000D02*
X124250000Y-126000000D01*
X125750000Y-129750000D02*
X128250000Y-129750000D01*
D13*
%TO.C,X1*%
X123994796Y-100683553D02*
X126646447Y-103335204D01*
X126646447Y-103335204D02*
X130005204Y-99976447D01*
X130005204Y-99976447D02*
X127353553Y-97324796D01*
X127353553Y-97324796D02*
X123994796Y-100683553D01*
%TO.C,K3*%
X106148095Y-102052380D02*
X106148095Y-101052380D01*
X105576666Y-102052380D02*
X106005238Y-101480952D01*
X105576666Y-101052380D02*
X106148095Y-101623809D01*
X105243333Y-101052380D02*
X104624285Y-101052380D01*
X104957619Y-101433333D01*
X104814761Y-101433333D01*
X104719523Y-101480952D01*
X104671904Y-101528571D01*
X104624285Y-101623809D01*
X104624285Y-101861904D01*
X104671904Y-101957142D01*
X104719523Y-102004761D01*
X104814761Y-102052380D01*
X105100476Y-102052380D01*
X105195714Y-102004761D01*
X105243333Y-101957142D01*
%TO.C,U1*%
D11*
X127761904Y-121202380D02*
X127761904Y-122011904D01*
X127714285Y-122107142D01*
X127666666Y-122154761D01*
X127571428Y-122202380D01*
X127380952Y-122202380D01*
X127285714Y-122154761D01*
X127238095Y-122107142D01*
X127190476Y-122011904D01*
X127190476Y-121202380D01*
X126190476Y-122202380D02*
X126761904Y-122202380D01*
X126476190Y-122202380D02*
X126476190Y-121202380D01*
X126571428Y-121345238D01*
X126666666Y-121440476D01*
X126761904Y-121488095D01*
%TO.C,C1*%
X123927142Y-100163333D02*
X123974761Y-100115714D01*
X124022380Y-99972857D01*
X124022380Y-99877619D01*
X123974761Y-99734761D01*
X123879523Y-99639523D01*
X123784285Y-99591904D01*
X123593809Y-99544285D01*
X123450952Y-99544285D01*
X123260476Y-99591904D01*
X123165238Y-99639523D01*
X123070000Y-99734761D01*
X123022380Y-99877619D01*
X123022380Y-99972857D01*
X123070000Y-100115714D01*
X123117619Y-100163333D01*
X124022380Y-101115714D02*
X124022380Y-100544285D01*
X124022380Y-100830000D02*
X123022380Y-100830000D01*
X123165238Y-100734761D01*
X123260476Y-100639523D01*
X123308095Y-100544285D01*
%TO.C,C2*%
X135357142Y-100163333D02*
X135404761Y-100115714D01*
X135452380Y-99972857D01*
X135452380Y-99877619D01*
X135404761Y-99734761D01*
X135309523Y-99639523D01*
X135214285Y-99591904D01*
X135023809Y-99544285D01*
X134880952Y-99544285D01*
X134690476Y-99591904D01*
X134595238Y-99639523D01*
X134500000Y-99734761D01*
X134452380Y-99877619D01*
X134452380Y-99972857D01*
X134500000Y-100115714D01*
X134547619Y-100163333D01*
X134547619Y-100544285D02*
X134500000Y-100591904D01*
X134452380Y-100687142D01*
X134452380Y-100925238D01*
X134500000Y-101020476D01*
X134547619Y-101068095D01*
X134642857Y-101115714D01*
X134738095Y-101115714D01*
X134880952Y-101068095D01*
X135452380Y-100496666D01*
X135452380Y-101115714D01*
%TO.C,C3*%
X135867142Y-116673333D02*
X135914761Y-116625714D01*
X135962380Y-116482857D01*
X135962380Y-116387619D01*
X135914761Y-116244761D01*
X135819523Y-116149523D01*
X135724285Y-116101904D01*
X135533809Y-116054285D01*
X135390952Y-116054285D01*
X135200476Y-116101904D01*
X135105238Y-116149523D01*
X135010000Y-116244761D01*
X134962380Y-116387619D01*
X134962380Y-116482857D01*
X135010000Y-116625714D01*
X135057619Y-116673333D01*
X134962380Y-117006666D02*
X134962380Y-117625714D01*
X135343333Y-117292380D01*
X135343333Y-117435238D01*
X135390952Y-117530476D01*
X135438571Y-117578095D01*
X135533809Y-117625714D01*
X135771904Y-117625714D01*
X135867142Y-117578095D01*
X135914761Y-117530476D01*
X135962380Y-117435238D01*
X135962380Y-117149523D01*
X135914761Y-117054285D01*
X135867142Y-117006666D01*
%TO.C,C4*%
X135867142Y-109053333D02*
X135914761Y-109005714D01*
X135962380Y-108862857D01*
X135962380Y-108767619D01*
X135914761Y-108624761D01*
X135819523Y-108529523D01*
X135724285Y-108481904D01*
X135533809Y-108434285D01*
X135390952Y-108434285D01*
X135200476Y-108481904D01*
X135105238Y-108529523D01*
X135010000Y-108624761D01*
X134962380Y-108767619D01*
X134962380Y-108862857D01*
X135010000Y-109005714D01*
X135057619Y-109053333D01*
X135295714Y-109910476D02*
X135962380Y-109910476D01*
X134914761Y-109672380D02*
X135629047Y-109434285D01*
X135629047Y-110053333D01*
%TO.C,C5*%
X120117142Y-111593333D02*
X120164761Y-111545714D01*
X120212380Y-111402857D01*
X120212380Y-111307619D01*
X120164761Y-111164761D01*
X120069523Y-111069523D01*
X119974285Y-111021904D01*
X119783809Y-110974285D01*
X119640952Y-110974285D01*
X119450476Y-111021904D01*
X119355238Y-111069523D01*
X119260000Y-111164761D01*
X119212380Y-111307619D01*
X119212380Y-111402857D01*
X119260000Y-111545714D01*
X119307619Y-111593333D01*
X119212380Y-112498095D02*
X119212380Y-112021904D01*
X119688571Y-111974285D01*
X119640952Y-112021904D01*
X119593333Y-112117142D01*
X119593333Y-112355238D01*
X119640952Y-112450476D01*
X119688571Y-112498095D01*
X119783809Y-112545714D01*
X120021904Y-112545714D01*
X120117142Y-112498095D01*
X120164761Y-112450476D01*
X120212380Y-112355238D01*
X120212380Y-112117142D01*
X120164761Y-112021904D01*
X120117142Y-111974285D01*
%TO.C,C6*%
X120117142Y-100163333D02*
X120164761Y-100115714D01*
X120212380Y-99972857D01*
X120212380Y-99877619D01*
X120164761Y-99734761D01*
X120069523Y-99639523D01*
X119974285Y-99591904D01*
X119783809Y-99544285D01*
X119640952Y-99544285D01*
X119450476Y-99591904D01*
X119355238Y-99639523D01*
X119260000Y-99734761D01*
X119212380Y-99877619D01*
X119212380Y-99972857D01*
X119260000Y-100115714D01*
X119307619Y-100163333D01*
X119212380Y-101020476D02*
X119212380Y-100830000D01*
X119260000Y-100734761D01*
X119307619Y-100687142D01*
X119450476Y-100591904D01*
X119640952Y-100544285D01*
X120021904Y-100544285D01*
X120117142Y-100591904D01*
X120164761Y-100639523D01*
X120212380Y-100734761D01*
X120212380Y-100925238D01*
X120164761Y-101020476D01*
X120117142Y-101068095D01*
X120021904Y-101115714D01*
X119783809Y-101115714D01*
X119688571Y-101068095D01*
X119640952Y-101020476D01*
X119593333Y-100925238D01*
X119593333Y-100734761D01*
X119640952Y-100639523D01*
X119688571Y-100591904D01*
X119783809Y-100544285D01*
%TO.C,C7*%
X120117142Y-115403333D02*
X120164761Y-115355714D01*
X120212380Y-115212857D01*
X120212380Y-115117619D01*
X120164761Y-114974761D01*
X120069523Y-114879523D01*
X119974285Y-114831904D01*
X119783809Y-114784285D01*
X119640952Y-114784285D01*
X119450476Y-114831904D01*
X119355238Y-114879523D01*
X119260000Y-114974761D01*
X119212380Y-115117619D01*
X119212380Y-115212857D01*
X119260000Y-115355714D01*
X119307619Y-115403333D01*
X119212380Y-115736666D02*
X119212380Y-116403333D01*
X120212380Y-115974761D01*
%TO.C,C8*%
X120117142Y-119213333D02*
X120164761Y-119165714D01*
X120212380Y-119022857D01*
X120212380Y-118927619D01*
X120164761Y-118784761D01*
X120069523Y-118689523D01*
X119974285Y-118641904D01*
X119783809Y-118594285D01*
X119640952Y-118594285D01*
X119450476Y-118641904D01*
X119355238Y-118689523D01*
X119260000Y-118784761D01*
X119212380Y-118927619D01*
X119212380Y-119022857D01*
X119260000Y-119165714D01*
X119307619Y-119213333D01*
X119640952Y-119784761D02*
X119593333Y-119689523D01*
X119545714Y-119641904D01*
X119450476Y-119594285D01*
X119402857Y-119594285D01*
X119307619Y-119641904D01*
X119260000Y-119689523D01*
X119212380Y-119784761D01*
X119212380Y-119975238D01*
X119260000Y-120070476D01*
X119307619Y-120118095D01*
X119402857Y-120165714D01*
X119450476Y-120165714D01*
X119545714Y-120118095D01*
X119593333Y-120070476D01*
X119640952Y-119975238D01*
X119640952Y-119784761D01*
X119688571Y-119689523D01*
X119736190Y-119641904D01*
X119831428Y-119594285D01*
X120021904Y-119594285D01*
X120117142Y-119641904D01*
X120164761Y-119689523D01*
X120212380Y-119784761D01*
X120212380Y-119975238D01*
X120164761Y-120070476D01*
X120117142Y-120118095D01*
X120021904Y-120165714D01*
X119831428Y-120165714D01*
X119736190Y-120118095D01*
X119688571Y-120070476D01*
X119640952Y-119975238D01*
%TO.C,C9*%
X120117142Y-107783333D02*
X120164761Y-107735714D01*
X120212380Y-107592857D01*
X120212380Y-107497619D01*
X120164761Y-107354761D01*
X120069523Y-107259523D01*
X119974285Y-107211904D01*
X119783809Y-107164285D01*
X119640952Y-107164285D01*
X119450476Y-107211904D01*
X119355238Y-107259523D01*
X119260000Y-107354761D01*
X119212380Y-107497619D01*
X119212380Y-107592857D01*
X119260000Y-107735714D01*
X119307619Y-107783333D01*
X120212380Y-108259523D02*
X120212380Y-108450000D01*
X120164761Y-108545238D01*
X120117142Y-108592857D01*
X119974285Y-108688095D01*
X119783809Y-108735714D01*
X119402857Y-108735714D01*
X119307619Y-108688095D01*
X119260000Y-108640476D01*
X119212380Y-108545238D01*
X119212380Y-108354761D01*
X119260000Y-108259523D01*
X119307619Y-108211904D01*
X119402857Y-108164285D01*
X119640952Y-108164285D01*
X119736190Y-108211904D01*
X119783809Y-108259523D01*
X119831428Y-108354761D01*
X119831428Y-108545238D01*
X119783809Y-108640476D01*
X119736190Y-108688095D01*
X119640952Y-108735714D01*
%TO.C,D1*%
X86950476Y-107656904D02*
X86950476Y-106856904D01*
X86760000Y-106856904D01*
X86645714Y-106895000D01*
X86569523Y-106971190D01*
X86531428Y-107047380D01*
X86493333Y-107199761D01*
X86493333Y-107314047D01*
X86531428Y-107466428D01*
X86569523Y-107542619D01*
X86645714Y-107618809D01*
X86760000Y-107656904D01*
X86950476Y-107656904D01*
X85731428Y-107656904D02*
X86188571Y-107656904D01*
X85960000Y-107656904D02*
X85960000Y-106856904D01*
X86036190Y-106971190D01*
X86112380Y-107047380D01*
X86188571Y-107085476D01*
%TO.C,D2*%
X86950476Y-126706904D02*
X86950476Y-125906904D01*
X86760000Y-125906904D01*
X86645714Y-125945000D01*
X86569523Y-126021190D01*
X86531428Y-126097380D01*
X86493333Y-126249761D01*
X86493333Y-126364047D01*
X86531428Y-126516428D01*
X86569523Y-126592619D01*
X86645714Y-126668809D01*
X86760000Y-126706904D01*
X86950476Y-126706904D01*
X86188571Y-125983095D02*
X86150476Y-125945000D01*
X86074285Y-125906904D01*
X85883809Y-125906904D01*
X85807619Y-125945000D01*
X85769523Y-125983095D01*
X85731428Y-126059285D01*
X85731428Y-126135476D01*
X85769523Y-126249761D01*
X86226666Y-126706904D01*
X85731428Y-126706904D01*
%TO.C,D3*%
X106000476Y-107656904D02*
X106000476Y-106856904D01*
X105810000Y-106856904D01*
X105695714Y-106895000D01*
X105619523Y-106971190D01*
X105581428Y-107047380D01*
X105543333Y-107199761D01*
X105543333Y-107314047D01*
X105581428Y-107466428D01*
X105619523Y-107542619D01*
X105695714Y-107618809D01*
X105810000Y-107656904D01*
X106000476Y-107656904D01*
X105276666Y-106856904D02*
X104781428Y-106856904D01*
X105048095Y-107161666D01*
X104933809Y-107161666D01*
X104857619Y-107199761D01*
X104819523Y-107237857D01*
X104781428Y-107314047D01*
X104781428Y-107504523D01*
X104819523Y-107580714D01*
X104857619Y-107618809D01*
X104933809Y-107656904D01*
X105162380Y-107656904D01*
X105238571Y-107618809D01*
X105276666Y-107580714D01*
%TO.C,D4*%
X106000476Y-126706904D02*
X106000476Y-125906904D01*
X105810000Y-125906904D01*
X105695714Y-125945000D01*
X105619523Y-126021190D01*
X105581428Y-126097380D01*
X105543333Y-126249761D01*
X105543333Y-126364047D01*
X105581428Y-126516428D01*
X105619523Y-126592619D01*
X105695714Y-126668809D01*
X105810000Y-126706904D01*
X106000476Y-126706904D01*
X104857619Y-126173571D02*
X104857619Y-126706904D01*
X105048095Y-125868809D02*
X105238571Y-126440238D01*
X104743333Y-126440238D01*
%TO.C,K1*%
D13*
X87098095Y-102052380D02*
X87098095Y-101052380D01*
X86526666Y-102052380D02*
X86955238Y-101480952D01*
X86526666Y-101052380D02*
X87098095Y-101623809D01*
X85574285Y-102052380D02*
X86145714Y-102052380D01*
X85860000Y-102052380D02*
X85860000Y-101052380D01*
X85955238Y-101195238D01*
X86050476Y-101290476D01*
X86145714Y-101338095D01*
%TO.C,K2*%
X87098095Y-119832380D02*
X87098095Y-118832380D01*
X86526666Y-119832380D02*
X86955238Y-119260952D01*
X86526666Y-118832380D02*
X87098095Y-119403809D01*
X86145714Y-118927619D02*
X86098095Y-118880000D01*
X86002857Y-118832380D01*
X85764761Y-118832380D01*
X85669523Y-118880000D01*
X85621904Y-118927619D01*
X85574285Y-119022857D01*
X85574285Y-119118095D01*
X85621904Y-119260952D01*
X86193333Y-119832380D01*
X85574285Y-119832380D01*
%TO.C,K4*%
X106148095Y-121102380D02*
X106148095Y-120102380D01*
X105576666Y-121102380D02*
X106005238Y-120530952D01*
X105576666Y-120102380D02*
X106148095Y-120673809D01*
X104719523Y-120435714D02*
X104719523Y-121102380D01*
X104957619Y-120054761D02*
X105195714Y-120769047D01*
X104576666Y-120769047D01*
%TO.C,R1*%
D11*
X122752380Y-124293333D02*
X122276190Y-123960000D01*
X122752380Y-123721904D02*
X121752380Y-123721904D01*
X121752380Y-124102857D01*
X121800000Y-124198095D01*
X121847619Y-124245714D01*
X121942857Y-124293333D01*
X122085714Y-124293333D01*
X122180952Y-124245714D01*
X122228571Y-124198095D01*
X122276190Y-124102857D01*
X122276190Y-123721904D01*
X122752380Y-125245714D02*
X122752380Y-124674285D01*
X122752380Y-124960000D02*
X121752380Y-124960000D01*
X121895238Y-124864761D01*
X121990476Y-124769523D01*
X122038095Y-124674285D01*
%TO.C,R2*%
X135962380Y-112863333D02*
X135486190Y-112530000D01*
X135962380Y-112291904D02*
X134962380Y-112291904D01*
X134962380Y-112672857D01*
X135010000Y-112768095D01*
X135057619Y-112815714D01*
X135152857Y-112863333D01*
X135295714Y-112863333D01*
X135390952Y-112815714D01*
X135438571Y-112768095D01*
X135486190Y-112672857D01*
X135486190Y-112291904D01*
X135057619Y-113244285D02*
X135010000Y-113291904D01*
X134962380Y-113387142D01*
X134962380Y-113625238D01*
X135010000Y-113720476D01*
X135057619Y-113768095D01*
X135152857Y-113815714D01*
X135248095Y-113815714D01*
X135390952Y-113768095D01*
X135962380Y-113196666D01*
X135962380Y-113815714D01*
%TO.C,R3*%
X127166666Y-94052380D02*
X127500000Y-93576190D01*
X127738095Y-94052380D02*
X127738095Y-93052380D01*
X127357142Y-93052380D01*
X127261904Y-93100000D01*
X127214285Y-93147619D01*
X127166666Y-93242857D01*
X127166666Y-93385714D01*
X127214285Y-93480952D01*
X127261904Y-93528571D01*
X127357142Y-93576190D01*
X127738095Y-93576190D01*
X126833333Y-93052380D02*
X126214285Y-93052380D01*
X126547619Y-93433333D01*
X126404761Y-93433333D01*
X126309523Y-93480952D01*
X126261904Y-93528571D01*
X126214285Y-93623809D01*
X126214285Y-93861904D01*
X126261904Y-93957142D01*
X126309523Y-94004761D01*
X126404761Y-94052380D01*
X126690476Y-94052380D01*
X126785714Y-94004761D01*
X126833333Y-93957142D01*
%TO.C,R4*%
X119546666Y-94432380D02*
X119880000Y-93956190D01*
X120118095Y-94432380D02*
X120118095Y-93432380D01*
X119737142Y-93432380D01*
X119641904Y-93480000D01*
X119594285Y-93527619D01*
X119546666Y-93622857D01*
X119546666Y-93765714D01*
X119594285Y-93860952D01*
X119641904Y-93908571D01*
X119737142Y-93956190D01*
X120118095Y-93956190D01*
X118689523Y-93765714D02*
X118689523Y-94432380D01*
X118927619Y-93384761D02*
X119165714Y-94099047D01*
X118546666Y-94099047D01*
%TO.C,SW1*%
X128333333Y-131154761D02*
X128190476Y-131202380D01*
X127952380Y-131202380D01*
X127857142Y-131154761D01*
X127809523Y-131107142D01*
X127761904Y-131011904D01*
X127761904Y-130916666D01*
X127809523Y-130821428D01*
X127857142Y-130773809D01*
X127952380Y-130726190D01*
X128142857Y-130678571D01*
X128238095Y-130630952D01*
X128285714Y-130583333D01*
X128333333Y-130488095D01*
X128333333Y-130392857D01*
X128285714Y-130297619D01*
X128238095Y-130250000D01*
X128142857Y-130202380D01*
X127904761Y-130202380D01*
X127761904Y-130250000D01*
X127428571Y-130202380D02*
X127190476Y-131202380D01*
X127000000Y-130488095D01*
X126809523Y-131202380D01*
X126571428Y-130202380D01*
X125666666Y-131202380D02*
X126238095Y-131202380D01*
X125952380Y-131202380D02*
X125952380Y-130202380D01*
X126047619Y-130345238D01*
X126142857Y-130440476D01*
X126238095Y-130488095D01*
%TD*%
M02*
