%TF.GenerationSoftware,KiCad,Pcbnew,(5.1.6)-1*%
%TF.CreationDate,2020-08-17T19:43:53-04:00*%
%TF.ProjectId,keeb_v1,6b656562-5f76-4312-9e6b-696361645f70,rev?*%
%TF.SameCoordinates,Original*%
%TF.FileFunction,Paste,Bot*%
%TF.FilePolarity,Positive*%
%FSLAX46Y46*%
G04 Gerber Fmt 4.6, Leading zero omitted, Abs format (unit mm)*
G04 Created by KiCad (PCBNEW (5.1.6)-1) date 2020-08-17 19:43:53*
%MOMM*%
%LPD*%
G01*
G04 APERTURE LIST*
%ADD10R,1.500000X0.550000*%
%ADD11R,0.550000X1.500000*%
%ADD12R,1.200000X1.200000*%
%ADD13R,2.350000X0.800000*%
%ADD14R,0.500000X1.400000*%
%ADD15O,1.500000X4.000000*%
%ADD16R,1.700000X1.000000*%
%ADD17C,0.100000*%
G04 APERTURE END LIST*
D10*
%TO.C,U1*%
X121300000Y-118300000D03*
X121300000Y-117500000D03*
X121300000Y-116700000D03*
X121300000Y-115900000D03*
X121300000Y-115100000D03*
X121300000Y-114300000D03*
X121300000Y-113500000D03*
X121300000Y-112700000D03*
X121300000Y-111900000D03*
X121300000Y-111100000D03*
X121300000Y-110300000D03*
D11*
X123000000Y-108600000D03*
X123800000Y-108600000D03*
X124600000Y-108600000D03*
X125400000Y-108600000D03*
X126200000Y-108600000D03*
X127000000Y-108600000D03*
X127800000Y-108600000D03*
X128600000Y-108600000D03*
X129400000Y-108600000D03*
X130200000Y-108600000D03*
X131000000Y-108600000D03*
D10*
X132700000Y-110300000D03*
X132700000Y-111100000D03*
X132700000Y-111900000D03*
X132700000Y-112700000D03*
X132700000Y-113500000D03*
X132700000Y-114300000D03*
X132700000Y-115100000D03*
X132700000Y-115900000D03*
X132700000Y-116700000D03*
X132700000Y-117500000D03*
X132700000Y-118300000D03*
D11*
X131000000Y-120000000D03*
X130200000Y-120000000D03*
X129400000Y-120000000D03*
X128600000Y-120000000D03*
X127800000Y-120000000D03*
X127000000Y-120000000D03*
X126200000Y-120000000D03*
X125400000Y-120000000D03*
X124600000Y-120000000D03*
X123800000Y-120000000D03*
X123000000Y-120000000D03*
%TD*%
%TO.C,C1*%
G36*
G01*
X122370001Y-101930000D02*
X121469999Y-101930000D01*
G75*
G02*
X121220000Y-101680001I0J249999D01*
G01*
X121220000Y-101029999D01*
G75*
G02*
X121469999Y-100780000I249999J0D01*
G01*
X122370001Y-100780000D01*
G75*
G02*
X122620000Y-101029999I0J-249999D01*
G01*
X122620000Y-101680001D01*
G75*
G02*
X122370001Y-101930000I-249999J0D01*
G01*
G37*
G36*
G01*
X122370001Y-99880000D02*
X121469999Y-99880000D01*
G75*
G02*
X121220000Y-99630001I0J249999D01*
G01*
X121220000Y-98979999D01*
G75*
G02*
X121469999Y-98730000I249999J0D01*
G01*
X122370001Y-98730000D01*
G75*
G02*
X122620000Y-98979999I0J-249999D01*
G01*
X122620000Y-99630001D01*
G75*
G02*
X122370001Y-99880000I-249999J0D01*
G01*
G37*
%TD*%
%TO.C,C2*%
G36*
G01*
X133800001Y-99880000D02*
X132899999Y-99880000D01*
G75*
G02*
X132650000Y-99630001I0J249999D01*
G01*
X132650000Y-98979999D01*
G75*
G02*
X132899999Y-98730000I249999J0D01*
G01*
X133800001Y-98730000D01*
G75*
G02*
X134050000Y-98979999I0J-249999D01*
G01*
X134050000Y-99630001D01*
G75*
G02*
X133800001Y-99880000I-249999J0D01*
G01*
G37*
G36*
G01*
X133800001Y-101930000D02*
X132899999Y-101930000D01*
G75*
G02*
X132650000Y-101680001I0J249999D01*
G01*
X132650000Y-101029999D01*
G75*
G02*
X132899999Y-100780000I249999J0D01*
G01*
X133800001Y-100780000D01*
G75*
G02*
X134050000Y-101029999I0J-249999D01*
G01*
X134050000Y-101680001D01*
G75*
G02*
X133800001Y-101930000I-249999J0D01*
G01*
G37*
%TD*%
%TO.C,C3*%
G36*
G01*
X136709999Y-117290000D02*
X137610001Y-117290000D01*
G75*
G02*
X137860000Y-117539999I0J-249999D01*
G01*
X137860000Y-118190001D01*
G75*
G02*
X137610001Y-118440000I-249999J0D01*
G01*
X136709999Y-118440000D01*
G75*
G02*
X136460000Y-118190001I0J249999D01*
G01*
X136460000Y-117539999D01*
G75*
G02*
X136709999Y-117290000I249999J0D01*
G01*
G37*
G36*
G01*
X136709999Y-115240000D02*
X137610001Y-115240000D01*
G75*
G02*
X137860000Y-115489999I0J-249999D01*
G01*
X137860000Y-116140001D01*
G75*
G02*
X137610001Y-116390000I-249999J0D01*
G01*
X136709999Y-116390000D01*
G75*
G02*
X136460000Y-116140001I0J249999D01*
G01*
X136460000Y-115489999D01*
G75*
G02*
X136709999Y-115240000I249999J0D01*
G01*
G37*
%TD*%
%TO.C,C4*%
G36*
G01*
X136709999Y-107620000D02*
X137610001Y-107620000D01*
G75*
G02*
X137860000Y-107869999I0J-249999D01*
G01*
X137860000Y-108520001D01*
G75*
G02*
X137610001Y-108770000I-249999J0D01*
G01*
X136709999Y-108770000D01*
G75*
G02*
X136460000Y-108520001I0J249999D01*
G01*
X136460000Y-107869999D01*
G75*
G02*
X136709999Y-107620000I249999J0D01*
G01*
G37*
G36*
G01*
X136709999Y-109670000D02*
X137610001Y-109670000D01*
G75*
G02*
X137860000Y-109919999I0J-249999D01*
G01*
X137860000Y-110570001D01*
G75*
G02*
X137610001Y-110820000I-249999J0D01*
G01*
X136709999Y-110820000D01*
G75*
G02*
X136460000Y-110570001I0J249999D01*
G01*
X136460000Y-109919999D01*
G75*
G02*
X136709999Y-109670000I249999J0D01*
G01*
G37*
%TD*%
%TO.C,C5*%
G36*
G01*
X118560001Y-111310000D02*
X117659999Y-111310000D01*
G75*
G02*
X117410000Y-111060001I0J249999D01*
G01*
X117410000Y-110409999D01*
G75*
G02*
X117659999Y-110160000I249999J0D01*
G01*
X118560001Y-110160000D01*
G75*
G02*
X118810000Y-110409999I0J-249999D01*
G01*
X118810000Y-111060001D01*
G75*
G02*
X118560001Y-111310000I-249999J0D01*
G01*
G37*
G36*
G01*
X118560001Y-113360000D02*
X117659999Y-113360000D01*
G75*
G02*
X117410000Y-113110001I0J249999D01*
G01*
X117410000Y-112459999D01*
G75*
G02*
X117659999Y-112210000I249999J0D01*
G01*
X118560001Y-112210000D01*
G75*
G02*
X118810000Y-112459999I0J-249999D01*
G01*
X118810000Y-113110001D01*
G75*
G02*
X118560001Y-113360000I-249999J0D01*
G01*
G37*
%TD*%
%TO.C,C6*%
G36*
G01*
X118560001Y-101930000D02*
X117659999Y-101930000D01*
G75*
G02*
X117410000Y-101680001I0J249999D01*
G01*
X117410000Y-101029999D01*
G75*
G02*
X117659999Y-100780000I249999J0D01*
G01*
X118560001Y-100780000D01*
G75*
G02*
X118810000Y-101029999I0J-249999D01*
G01*
X118810000Y-101680001D01*
G75*
G02*
X118560001Y-101930000I-249999J0D01*
G01*
G37*
G36*
G01*
X118560001Y-99880000D02*
X117659999Y-99880000D01*
G75*
G02*
X117410000Y-99630001I0J249999D01*
G01*
X117410000Y-98979999D01*
G75*
G02*
X117659999Y-98730000I249999J0D01*
G01*
X118560001Y-98730000D01*
G75*
G02*
X118810000Y-98979999I0J-249999D01*
G01*
X118810000Y-99630001D01*
G75*
G02*
X118560001Y-99880000I-249999J0D01*
G01*
G37*
%TD*%
%TO.C,C7*%
G36*
G01*
X118560001Y-115120000D02*
X117659999Y-115120000D01*
G75*
G02*
X117410000Y-114870001I0J249999D01*
G01*
X117410000Y-114219999D01*
G75*
G02*
X117659999Y-113970000I249999J0D01*
G01*
X118560001Y-113970000D01*
G75*
G02*
X118810000Y-114219999I0J-249999D01*
G01*
X118810000Y-114870001D01*
G75*
G02*
X118560001Y-115120000I-249999J0D01*
G01*
G37*
G36*
G01*
X118560001Y-117170000D02*
X117659999Y-117170000D01*
G75*
G02*
X117410000Y-116920001I0J249999D01*
G01*
X117410000Y-116269999D01*
G75*
G02*
X117659999Y-116020000I249999J0D01*
G01*
X118560001Y-116020000D01*
G75*
G02*
X118810000Y-116269999I0J-249999D01*
G01*
X118810000Y-116920001D01*
G75*
G02*
X118560001Y-117170000I-249999J0D01*
G01*
G37*
%TD*%
%TO.C,C8*%
G36*
G01*
X118560001Y-120980000D02*
X117659999Y-120980000D01*
G75*
G02*
X117410000Y-120730001I0J249999D01*
G01*
X117410000Y-120079999D01*
G75*
G02*
X117659999Y-119830000I249999J0D01*
G01*
X118560001Y-119830000D01*
G75*
G02*
X118810000Y-120079999I0J-249999D01*
G01*
X118810000Y-120730001D01*
G75*
G02*
X118560001Y-120980000I-249999J0D01*
G01*
G37*
G36*
G01*
X118560001Y-118930000D02*
X117659999Y-118930000D01*
G75*
G02*
X117410000Y-118680001I0J249999D01*
G01*
X117410000Y-118029999D01*
G75*
G02*
X117659999Y-117780000I249999J0D01*
G01*
X118560001Y-117780000D01*
G75*
G02*
X118810000Y-118029999I0J-249999D01*
G01*
X118810000Y-118680001D01*
G75*
G02*
X118560001Y-118930000I-249999J0D01*
G01*
G37*
%TD*%
%TO.C,C9*%
G36*
G01*
X118560001Y-109550000D02*
X117659999Y-109550000D01*
G75*
G02*
X117410000Y-109300001I0J249999D01*
G01*
X117410000Y-108649999D01*
G75*
G02*
X117659999Y-108400000I249999J0D01*
G01*
X118560001Y-108400000D01*
G75*
G02*
X118810000Y-108649999I0J-249999D01*
G01*
X118810000Y-109300001D01*
G75*
G02*
X118560001Y-109550000I-249999J0D01*
G01*
G37*
G36*
G01*
X118560001Y-107500000D02*
X117659999Y-107500000D01*
G75*
G02*
X117410000Y-107250001I0J249999D01*
G01*
X117410000Y-106599999D01*
G75*
G02*
X117659999Y-106350000I249999J0D01*
G01*
X118560001Y-106350000D01*
G75*
G02*
X118810000Y-106599999I0J-249999D01*
G01*
X118810000Y-107250001D01*
G75*
G02*
X118560001Y-107500000I-249999J0D01*
G01*
G37*
%TD*%
D12*
%TO.C,D1*%
X84785000Y-109220000D03*
X87935000Y-109220000D03*
%TD*%
%TO.C,D2*%
X87935000Y-128270000D03*
X84785000Y-128270000D03*
%TD*%
%TO.C,D3*%
X106985000Y-109220000D03*
X103835000Y-109220000D03*
%TD*%
%TO.C,D4*%
X103835000Y-128270000D03*
X106985000Y-128270000D03*
%TD*%
D13*
%TO.C,J1*%
X97925000Y-95130000D03*
X92575000Y-95130000D03*
D14*
X93650000Y-100330000D03*
X94450000Y-100330000D03*
X95250000Y-100330000D03*
X96050000Y-100330000D03*
X96850000Y-100330000D03*
D15*
X91600000Y-97930000D03*
X98900000Y-97930000D03*
%TD*%
%TO.C,R1*%
G36*
G01*
X121100001Y-126060000D02*
X120199999Y-126060000D01*
G75*
G02*
X119950000Y-125810001I0J249999D01*
G01*
X119950000Y-125159999D01*
G75*
G02*
X120199999Y-124910000I249999J0D01*
G01*
X121100001Y-124910000D01*
G75*
G02*
X121350000Y-125159999I0J-249999D01*
G01*
X121350000Y-125810001D01*
G75*
G02*
X121100001Y-126060000I-249999J0D01*
G01*
G37*
G36*
G01*
X121100001Y-124010000D02*
X120199999Y-124010000D01*
G75*
G02*
X119950000Y-123760001I0J249999D01*
G01*
X119950000Y-123109999D01*
G75*
G02*
X120199999Y-122860000I249999J0D01*
G01*
X121100001Y-122860000D01*
G75*
G02*
X121350000Y-123109999I0J-249999D01*
G01*
X121350000Y-123760001D01*
G75*
G02*
X121100001Y-124010000I-249999J0D01*
G01*
G37*
%TD*%
%TO.C,R2*%
G36*
G01*
X136709999Y-113480000D02*
X137610001Y-113480000D01*
G75*
G02*
X137860000Y-113729999I0J-249999D01*
G01*
X137860000Y-114380001D01*
G75*
G02*
X137610001Y-114630000I-249999J0D01*
G01*
X136709999Y-114630000D01*
G75*
G02*
X136460000Y-114380001I0J249999D01*
G01*
X136460000Y-113729999D01*
G75*
G02*
X136709999Y-113480000I249999J0D01*
G01*
G37*
G36*
G01*
X136709999Y-111430000D02*
X137610001Y-111430000D01*
G75*
G02*
X137860000Y-111679999I0J-249999D01*
G01*
X137860000Y-112330001D01*
G75*
G02*
X137610001Y-112580000I-249999J0D01*
G01*
X136709999Y-112580000D01*
G75*
G02*
X136460000Y-112330001I0J249999D01*
G01*
X136460000Y-111679999D01*
G75*
G02*
X136709999Y-111430000I249999J0D01*
G01*
G37*
%TD*%
%TO.C,R3*%
G36*
G01*
X128600000Y-94799999D02*
X128600000Y-95700001D01*
G75*
G02*
X128350001Y-95950000I-249999J0D01*
G01*
X127699999Y-95950000D01*
G75*
G02*
X127450000Y-95700001I0J249999D01*
G01*
X127450000Y-94799999D01*
G75*
G02*
X127699999Y-94550000I249999J0D01*
G01*
X128350001Y-94550000D01*
G75*
G02*
X128600000Y-94799999I0J-249999D01*
G01*
G37*
G36*
G01*
X126550000Y-94799999D02*
X126550000Y-95700001D01*
G75*
G02*
X126300001Y-95950000I-249999J0D01*
G01*
X125649999Y-95950000D01*
G75*
G02*
X125400000Y-95700001I0J249999D01*
G01*
X125400000Y-94799999D01*
G75*
G02*
X125649999Y-94550000I249999J0D01*
G01*
X126300001Y-94550000D01*
G75*
G02*
X126550000Y-94799999I0J-249999D01*
G01*
G37*
%TD*%
%TO.C,R4*%
G36*
G01*
X118930000Y-94799999D02*
X118930000Y-95700001D01*
G75*
G02*
X118680001Y-95950000I-249999J0D01*
G01*
X118029999Y-95950000D01*
G75*
G02*
X117780000Y-95700001I0J249999D01*
G01*
X117780000Y-94799999D01*
G75*
G02*
X118029999Y-94550000I249999J0D01*
G01*
X118680001Y-94550000D01*
G75*
G02*
X118930000Y-94799999I0J-249999D01*
G01*
G37*
G36*
G01*
X120980000Y-94799999D02*
X120980000Y-95700001D01*
G75*
G02*
X120730001Y-95950000I-249999J0D01*
G01*
X120079999Y-95950000D01*
G75*
G02*
X119830000Y-95700001I0J249999D01*
G01*
X119830000Y-94799999D01*
G75*
G02*
X120079999Y-94550000I249999J0D01*
G01*
X120730001Y-94550000D01*
G75*
G02*
X120980000Y-94799999I0J-249999D01*
G01*
G37*
%TD*%
D16*
%TO.C,SW1*%
X123850000Y-128900000D03*
X130150000Y-128900000D03*
X123850000Y-125100000D03*
X130150000Y-125100000D03*
%TD*%
D17*
%TO.C,X1*%
G36*
X126681802Y-102698808D02*
G01*
X125833274Y-101850280D01*
X126823224Y-100860330D01*
X127671752Y-101708858D01*
X126681802Y-102698808D01*
G37*
G36*
X128378858Y-101001752D02*
G01*
X127530330Y-100153224D01*
X128520280Y-99163274D01*
X129368808Y-100011802D01*
X128378858Y-101001752D01*
G37*
G36*
X125479720Y-101496726D02*
G01*
X124631192Y-100648198D01*
X125621142Y-99658248D01*
X126469670Y-100506776D01*
X125479720Y-101496726D01*
G37*
G36*
X127176776Y-99799670D02*
G01*
X126328248Y-98951142D01*
X127318198Y-97961192D01*
X128166726Y-98809720D01*
X127176776Y-99799670D01*
G37*
%TD*%
M02*
