%TF.GenerationSoftware,KiCad,Pcbnew,(5.1.6)-1*%
%TF.CreationDate,2020-08-17T19:43:53-04:00*%
%TF.ProjectId,keeb_v1,6b656562-5f76-4312-9e6b-696361645f70,rev?*%
%TF.SameCoordinates,Original*%
%TF.FileFunction,Legend,Top*%
%TF.FilePolarity,Positive*%
%FSLAX46Y46*%
G04 Gerber Fmt 4.6, Leading zero omitted, Abs format (unit mm)*
G04 Created by KiCad (PCBNEW (5.1.6)-1) date 2020-08-17 19:43:53*
%MOMM*%
%LPD*%
G01*
G04 APERTURE LIST*
%ADD10C,0.300000*%
%ADD11C,0.381000*%
G04 APERTURE END LIST*
D10*
X72124571Y-137076571D02*
X72124571Y-135576571D01*
X72267428Y-136505142D02*
X72696000Y-137076571D01*
X72696000Y-136076571D02*
X72124571Y-136648000D01*
X73910285Y-137005142D02*
X73767428Y-137076571D01*
X73481714Y-137076571D01*
X73338857Y-137005142D01*
X73267428Y-136862285D01*
X73267428Y-136290857D01*
X73338857Y-136148000D01*
X73481714Y-136076571D01*
X73767428Y-136076571D01*
X73910285Y-136148000D01*
X73981714Y-136290857D01*
X73981714Y-136433714D01*
X73267428Y-136576571D01*
X75196000Y-137005142D02*
X75053142Y-137076571D01*
X74767428Y-137076571D01*
X74624571Y-137005142D01*
X74553142Y-136862285D01*
X74553142Y-136290857D01*
X74624571Y-136148000D01*
X74767428Y-136076571D01*
X75053142Y-136076571D01*
X75196000Y-136148000D01*
X75267428Y-136290857D01*
X75267428Y-136433714D01*
X74553142Y-136576571D01*
X75910285Y-137076571D02*
X75910285Y-135576571D01*
X75910285Y-136148000D02*
X76053142Y-136076571D01*
X76338857Y-136076571D01*
X76481714Y-136148000D01*
X76553142Y-136219428D01*
X76624571Y-136362285D01*
X76624571Y-136790857D01*
X76553142Y-136933714D01*
X76481714Y-137005142D01*
X76338857Y-137076571D01*
X76053142Y-137076571D01*
X75910285Y-137005142D01*
X77196000Y-137005142D02*
X77338857Y-137076571D01*
X77624571Y-137076571D01*
X77767428Y-137005142D01*
X77838857Y-136862285D01*
X77838857Y-136790857D01*
X77767428Y-136648000D01*
X77624571Y-136576571D01*
X77410285Y-136576571D01*
X77267428Y-136505142D01*
X77196000Y-136362285D01*
X77196000Y-136290857D01*
X77267428Y-136148000D01*
X77410285Y-136076571D01*
X77624571Y-136076571D01*
X77767428Y-136148000D01*
X78481714Y-137076571D02*
X78481714Y-136076571D01*
X78481714Y-135576571D02*
X78410285Y-135648000D01*
X78481714Y-135719428D01*
X78553142Y-135648000D01*
X78481714Y-135576571D01*
X78481714Y-135719428D01*
X79767428Y-137005142D02*
X79624571Y-137076571D01*
X79338857Y-137076571D01*
X79196000Y-137005142D01*
X79124571Y-136862285D01*
X79124571Y-136290857D01*
X79196000Y-136148000D01*
X79338857Y-136076571D01*
X79624571Y-136076571D01*
X79767428Y-136148000D01*
X79838857Y-136290857D01*
X79838857Y-136433714D01*
X79124571Y-136576571D01*
D11*
%TO.C,K3*%
X99060000Y-97790000D02*
X100838000Y-97790000D01*
X109982000Y-97790000D02*
X111760000Y-97790000D01*
X111760000Y-97790000D02*
X111760000Y-99568000D01*
X111760000Y-108712000D02*
X111760000Y-110490000D01*
X111760000Y-110490000D02*
X109982000Y-110490000D01*
X100838000Y-110490000D02*
X99060000Y-110490000D01*
X99060000Y-110490000D02*
X99060000Y-108712000D01*
X99060000Y-99568000D02*
X99060000Y-97790000D01*
%TO.C,K1*%
X80010000Y-99568000D02*
X80010000Y-97790000D01*
X80010000Y-110490000D02*
X80010000Y-108712000D01*
X81788000Y-110490000D02*
X80010000Y-110490000D01*
X92710000Y-110490000D02*
X90932000Y-110490000D01*
X92710000Y-108712000D02*
X92710000Y-110490000D01*
X92710000Y-97790000D02*
X92710000Y-99568000D01*
X90932000Y-97790000D02*
X92710000Y-97790000D01*
X80010000Y-97790000D02*
X81788000Y-97790000D01*
%TO.C,K2*%
X80010000Y-118618000D02*
X80010000Y-116840000D01*
X80010000Y-129540000D02*
X80010000Y-127762000D01*
X81788000Y-129540000D02*
X80010000Y-129540000D01*
X92710000Y-129540000D02*
X90932000Y-129540000D01*
X92710000Y-127762000D02*
X92710000Y-129540000D01*
X92710000Y-116840000D02*
X92710000Y-118618000D01*
X90932000Y-116840000D02*
X92710000Y-116840000D01*
X80010000Y-116840000D02*
X81788000Y-116840000D01*
%TO.C,K4*%
X99060000Y-116840000D02*
X100838000Y-116840000D01*
X109982000Y-116840000D02*
X111760000Y-116840000D01*
X111760000Y-116840000D02*
X111760000Y-118618000D01*
X111760000Y-127762000D02*
X111760000Y-129540000D01*
X111760000Y-129540000D02*
X109982000Y-129540000D01*
X100838000Y-129540000D02*
X99060000Y-129540000D01*
X99060000Y-129540000D02*
X99060000Y-127762000D01*
X99060000Y-118618000D02*
X99060000Y-116840000D01*
%TD*%
M02*
