M48
; DRILL file {KiCad (5.1.6)-1} date 08/17/20 19:44:12
; FORMAT={-:-/ absolute / inch / decimal}
; #@! TF.CreationDate,2020-08-17T19:44:12-04:00
; #@! TF.GenerationSoftware,Kicad,Pcbnew,(5.1.6)-1
; #@! TF.FileFunction,Plated,1,2,PTH
FMAT,2
INCH
T1C0.0157
T2C0.0276
T3C0.0591
%
G90
G05
T1
X3.62Y-4.36
X3.7348Y-4.4152
X3.83Y-4.36
X3.83Y-4.41
X4.06Y-4.36
X4.56Y-5.09
X4.6Y-4.53
X4.6Y-4.63
X4.6915Y-4.37
X4.6915Y-4.4398
X4.71Y-4.51
X4.71Y-4.72
X4.72Y-3.82
X4.72Y-4.7815
X4.78Y-3.82
X4.79Y-4.81
X4.79Y-5.07
X4.81Y-4.85
X4.82Y-4.53
X4.8415Y-4.3722
X4.92Y-4.59
X4.93Y-4.4085
X4.995Y-4.792
X5.04Y-4.58
X5.04Y-4.79
X5.08Y-4.5
X5.1Y-4.61
X5.11Y-4.35
X5.11Y-4.4
X5.12Y-4.81
T2
X3.2465Y-5.05
X3.5535Y-5.05
X3.9965Y-5.05
X4.3035Y-5.05
X3.9965Y-4.3
X4.3035Y-4.3
X3.2465Y-4.3
X3.5535Y-4.3
T2
G00X3.6063Y-3.8063
M15
G01X3.6063Y-3.9047
M16
G05
G00X3.8937Y-3.8063
M15
G01X3.8937Y-3.9047
M16
G05
T3
G00X3.2956Y-4.6741
M15
G01X3.2481Y-4.7488
M16
G05
G00X3.5Y-4.65
M15
G01X3.4984Y-4.6728
M16
G05
G00X4.0456Y-3.9241
M15
G01X3.9981Y-3.9988
M16
G05
G00X4.25Y-3.9
M15
G01X4.2484Y-3.9228
M16
G05
G00X3.2956Y-3.9241
M15
G01X3.2481Y-3.9988
M16
G05
G00X3.5Y-3.9
M15
G01X3.4984Y-3.9228
M16
G05
G00X4.0456Y-4.6741
M15
G01X3.9981Y-4.7488
M16
G05
G00X4.25Y-4.65
M15
G01X4.2484Y-4.6728
M16
G05
T0
M30
