%TF.GenerationSoftware,KiCad,Pcbnew,(5.1.6)-1*%
%TF.CreationDate,2020-08-17T19:43:53-04:00*%
%TF.ProjectId,keeb_v1,6b656562-5f76-4312-9e6b-696361645f70,rev?*%
%TF.SameCoordinates,Original*%
%TF.FileFunction,Soldermask,Top*%
%TF.FilePolarity,Negative*%
%FSLAX46Y46*%
G04 Gerber Fmt 4.6, Leading zero omitted, Abs format (unit mm)*
G04 Created by KiCad (PCBNEW (5.1.6)-1) date 2020-08-17 19:43:53*
%MOMM*%
%LPD*%
G01*
G04 APERTURE LIST*
%ADD10C,1.801800*%
%ADD11C,4.087800*%
%ADD12C,1.700000*%
%ADD13R,1.700000X1.700000*%
%ADD14O,1.600000X4.100000*%
G04 APERTURE END LIST*
%TO.C,K3*%
G36*
G01*
X106613286Y-99550909D02*
X106652734Y-98972252D01*
G75*
G02*
X108038144Y-97763682I1296990J-88420D01*
G01*
X108038144Y-97763682D01*
G75*
G02*
X109246714Y-99149092I-88420J-1296990D01*
G01*
X109207266Y-99727748D01*
G75*
G02*
X107821856Y-100936318I-1296990J88420D01*
G01*
X107821856Y-100936318D01*
G75*
G02*
X106613286Y-99550908I88420J1296990D01*
G01*
G37*
G36*
G01*
X100454129Y-100870326D02*
X101663053Y-98972696D01*
G75*
G02*
X103457951Y-98574776I1096409J-698489D01*
G01*
X103457951Y-98574776D01*
G75*
G02*
X103855871Y-100369674I-698489J-1096409D01*
G01*
X102646947Y-102267304D01*
G75*
G02*
X100852049Y-102665224I-1096409J698489D01*
G01*
X100852049Y-102665224D01*
G75*
G02*
X100454129Y-100870326I698489J1096409D01*
G01*
G37*
D10*
X110490000Y-104140000D03*
X100330000Y-104140000D03*
D11*
X105410000Y-104140000D03*
%TD*%
D12*
%TO.C,D1*%
X90260000Y-109220000D03*
D13*
X82460000Y-109220000D03*
%TD*%
%TO.C,D2*%
X82460000Y-128270000D03*
D12*
X90260000Y-128270000D03*
%TD*%
D13*
%TO.C,D3*%
X101510000Y-109220000D03*
D12*
X109310000Y-109220000D03*
%TD*%
%TO.C,D4*%
X109310000Y-128270000D03*
D13*
X101510000Y-128270000D03*
%TD*%
D14*
%TO.C,J1*%
X91600000Y-97930000D03*
X98900000Y-97930000D03*
%TD*%
D11*
%TO.C,K1*%
X86360000Y-104140000D03*
D10*
X81280000Y-104140000D03*
X91440000Y-104140000D03*
G36*
G01*
X81404129Y-100870326D02*
X82613053Y-98972696D01*
G75*
G02*
X84407951Y-98574776I1096409J-698489D01*
G01*
X84407951Y-98574776D01*
G75*
G02*
X84805871Y-100369674I-698489J-1096409D01*
G01*
X83596947Y-102267304D01*
G75*
G02*
X81802049Y-102665224I-1096409J698489D01*
G01*
X81802049Y-102665224D01*
G75*
G02*
X81404129Y-100870326I698489J1096409D01*
G01*
G37*
G36*
G01*
X87563286Y-99550909D02*
X87602734Y-98972252D01*
G75*
G02*
X88988144Y-97763682I1296990J-88420D01*
G01*
X88988144Y-97763682D01*
G75*
G02*
X90196714Y-99149092I-88420J-1296990D01*
G01*
X90157266Y-99727748D01*
G75*
G02*
X88771856Y-100936318I-1296990J88420D01*
G01*
X88771856Y-100936318D01*
G75*
G02*
X87563286Y-99550908I88420J1296990D01*
G01*
G37*
%TD*%
D11*
%TO.C,K2*%
X86360000Y-123190000D03*
D10*
X81280000Y-123190000D03*
X91440000Y-123190000D03*
G36*
G01*
X81404129Y-119920326D02*
X82613053Y-118022696D01*
G75*
G02*
X84407951Y-117624776I1096409J-698489D01*
G01*
X84407951Y-117624776D01*
G75*
G02*
X84805871Y-119419674I-698489J-1096409D01*
G01*
X83596947Y-121317304D01*
G75*
G02*
X81802049Y-121715224I-1096409J698489D01*
G01*
X81802049Y-121715224D01*
G75*
G02*
X81404129Y-119920326I698489J1096409D01*
G01*
G37*
G36*
G01*
X87563286Y-118600909D02*
X87602734Y-118022252D01*
G75*
G02*
X88988144Y-116813682I1296990J-88420D01*
G01*
X88988144Y-116813682D01*
G75*
G02*
X90196714Y-118199092I-88420J-1296990D01*
G01*
X90157266Y-118777748D01*
G75*
G02*
X88771856Y-119986318I-1296990J88420D01*
G01*
X88771856Y-119986318D01*
G75*
G02*
X87563286Y-118600908I88420J1296990D01*
G01*
G37*
%TD*%
%TO.C,K4*%
G36*
G01*
X106613286Y-118600909D02*
X106652734Y-118022252D01*
G75*
G02*
X108038144Y-116813682I1296990J-88420D01*
G01*
X108038144Y-116813682D01*
G75*
G02*
X109246714Y-118199092I-88420J-1296990D01*
G01*
X109207266Y-118777748D01*
G75*
G02*
X107821856Y-119986318I-1296990J88420D01*
G01*
X107821856Y-119986318D01*
G75*
G02*
X106613286Y-118600908I88420J1296990D01*
G01*
G37*
G36*
G01*
X100454129Y-119920326D02*
X101663053Y-118022696D01*
G75*
G02*
X103457951Y-117624776I1096409J-698489D01*
G01*
X103457951Y-117624776D01*
G75*
G02*
X103855871Y-119419674I-698489J-1096409D01*
G01*
X102646947Y-121317304D01*
G75*
G02*
X100852049Y-121715224I-1096409J698489D01*
G01*
X100852049Y-121715224D01*
G75*
G02*
X100454129Y-119920326I698489J1096409D01*
G01*
G37*
X110490000Y-123190000D03*
X100330000Y-123190000D03*
D11*
X105410000Y-123190000D03*
%TD*%
M02*
